<svg xmlns="http://www.w3.org/2000/svg" xmlns:xlink="http://www.w3.org/1999/xlink" viewBox="0 0 446.4 198.38"><defs><style>.cls-1{fill:url(#Dégradé_sans_nom_39);}.cls-2{fill:url(#Dégradé_sans_nom_39-2);}.cls-3{fill:url(#Dégradé_sans_nom_26);}</style><linearGradient id="Dégradé_sans_nom_39" x1="91.79" y1="30.25" x2="157.49" y2="30.25" gradientUnits="userSpaceOnUse"><stop offset="0" stop-color="#ea4f76"/><stop offset="1" stop-color="#aa4386"/></linearGradient><linearGradient id="Dégradé_sans_nom_39-2" x1="91.79" y1="168.13" x2="157.49" y2="168.13" xlink:href="#Dégradé_sans_nom_39"/><linearGradient id="Dégradé_sans_nom_26" y1="98.64" x2="446.4" y2="98.64" gradientUnits="userSpaceOnUse"><stop offset="0" stop-color="#ea4f76"/><stop offset="1" stop-color="#59398e"/></linearGradient></defs><g id="Calque_2" data-name="Calque 2"><g id="Calque_1-2" data-name="Calque 1"><rect class="cls-1" x="91.79" width="65.69" height="60.51"/><rect class="cls-2" x="91.79" y="137.87" width="65.69" height="60.51"/><path class="cls-3" d="M325.9,129.27l49,29.12C366.61,153.52,328.81,131,325.9,129.27ZM102,94.1H98v5.23h4c2,0,3.07-1,3.07-2.57V96.7C105.1,95,103.91,94.1,102,94.1ZM446.4,32.77v116a23.53,23.53,0,0,1-23.52,23.53h-10c-17-.81-29.82-9-38-13.86l-49-29.15-.09-.05L272.46,97.5v66.65a8.18,8.18,0,0,1-8.17,8.18H189.23a8.18,8.18,0,0,1-8.18-8.18v-44H71.53V164.5a8.17,8.17,0,0,1-8.17,8.18H8.18A8.18,8.18,0,0,1,0,164.5V33.21A8.18,8.18,0,0,1,8.18,25H63.36a8.17,8.17,0,0,1,8.17,8.18V75H181.05V32.85a8.17,8.17,0,0,1,8.18-8.17h56.22a41.54,41.54,0,0,1,19.38,6.09h0l110,66.54V32.77A8.17,8.17,0,0,1,383,24.6h55.18A8.17,8.17,0,0,1,446.4,32.77ZM73.07,103.26c0-3.18-2.08-4.5-5.77-5.46-3.15-.81-3.93-1.2-3.93-2.4v-.05c0-.88.81-1.58,2.34-1.58a8.49,8.49,0,0,1,4.73,1.79l2.08-3a10.52,10.52,0,0,0-6.76-2.31c-3.71,0-6.37,2.18-6.37,5.49v0c0,3.61,2.37,4.63,6,5.56,3,.78,3.66,1.3,3.66,2.32v0c0,1.06-1,1.71-2.62,1.71A8.33,8.33,0,0,1,61,103.2L58.66,106A11.6,11.6,0,0,0,66.39,109c3.92,0,6.68-2,6.68-5.64Zm17.34,1.87H80.53v-3.82h8.58V97.74H80.53V94.05h9.75V90.49H76.55v18.2H90.41Zm19.29,3.56-4.44-6.5a5.65,5.65,0,0,0,3.9-5.64v0a5.72,5.72,0,0,0-1.56-4.16,7.25,7.25,0,0,0-5.31-1.85H94v18.2h4v-5.82h3.14l3.9,5.82Zm19.24-18.2h-4.31l-4.76,12.82-4.76-12.82h-4.42l7.36,18.33h3.54Zm7,0h-4v18.2h4Zm20.54,15.26-2.55-2.57a6.56,6.56,0,0,1-4.78,2.13c-3.12,0-5.28-2.6-5.28-5.72v0a5.39,5.39,0,0,1,5.28-5.67,6.71,6.71,0,0,1,4.65,2L156.35,93a9.38,9.38,0,0,0-7.18-2.81,9.25,9.25,0,0,0-9.49,9.41v0A9.19,9.19,0,0,0,149,109,9.3,9.3,0,0,0,156.48,105.75Zm17.05-.62h-9.88v-3.82h8.58V97.74h-8.58V94.05h9.75V90.49H159.68v18.2h13.85Zm16.72-1.87c0-3.18-2.08-4.5-5.77-5.46-3.15-.81-3.93-1.2-3.93-2.4v-.05c0-.88.81-1.58,2.34-1.58a8.55,8.55,0,0,1,4.74,1.79l2.08-3A10.56,10.56,0,0,0,183,90.23c-3.72,0-6.37,2.18-6.37,5.49v0c0,3.61,2.36,4.63,6,5.56,3,.78,3.66,1.3,3.66,2.32v0c0,1.06-1,1.71-2.62,1.71a8.33,8.33,0,0,1-5.44-2.21L175.85,106a11.56,11.56,0,0,0,7.72,2.91c3.93,0,6.68-2,6.68-5.64Zm135.6,26,0,0-.09-.05Z"/></g></g></svg>